<svg id="Ebene_1" data-name="Ebene 1" xmlns="http://www.w3.org/2000/svg" width="116.66" height="116.64" viewBox="0 0 116.66 116.64">
  <defs>
    <style>
      .cls-1 {
        fill: #fff;
      }
    </style>
  </defs>
  <title>SLS Typo Try circle v2</title>
  <g>
    <path class="cls-1" d="M71.14,52.55a2,2,0,0,0-3-.36A3.2,3.2,0,0,0,67,53.41a1.36,1.36,0,0,0,.14,1.43c1.39,2.1,5.53-2.93,7.69.36a2.37,2.37,0,0,1,.4,1.73,4.08,4.08,0,0,1-2,2.81,4.94,4.94,0,0,1-2.88.92,2.91,2.91,0,0,1-2.33-1.46l1.08-.71a1.94,1.94,0,0,0,1.58,1,3.49,3.49,0,0,0,2-.65,3.84,3.84,0,0,0,1.28-1.33A1.42,1.42,0,0,0,73.82,56c-1.63-2.47-5.71,2.66-7.67-.32a2.45,2.45,0,0,1-.28-2.34,4.32,4.32,0,0,1,1.71-2c1.76-1.16,3.46-1.12,4.64.56Z" transform="translate(-41.67 -41.68)"/>
    <path class="cls-1" d="M80.43,44.93l.43,1-3,1.3,3.46,7.91-1.17.51-3.46-7.91-3,1.3-.44-1Z" transform="translate(-41.67 -41.68)"/>
    <g>
      <path class="cls-1" d="M83.07,44.22l1.24-.37,2.77,9.32-1.24.37Z" transform="translate(-41.67 -41.68)"/>
      <path class="cls-1" d="M90.57,51.23l5.08-.84.18,1.07-6.36,1-1.59-9.59,1.28-.21Z" transform="translate(-41.67 -41.68)"/>
      <path class="cls-1" d="M98.65,50.33l5.15.06,0,1.09-6.44-.08.12-9.72,1.3,0Z" transform="translate(-41.67 -41.68)"/>
      <path class="cls-1" d="M110.9,51.5l5,1.35-.29,1-6.22-1.69,2.54-9.38,1.25.34Z" transform="translate(-41.67 -41.68)"/>
    </g>
    <path class="cls-1" d="M120.73,45.49l1.19.49-3.67,9-1.2-.49Z" transform="translate(-41.67 -41.68)"/>
    <path class="cls-1" d="M130.36,51.44,125.92,49l-1.51,2.69L128.56,54l-.53,1-4.15-2.31-2.17,3.88-1.13-.63,4.74-8.49,5.58,3.12Z" transform="translate(-41.67 -41.68)"/>
    <path class="cls-1" d="M129.48,60l4.25,3.43-.68.84L127.79,60l6.1-7.58,5.23,4.22-.69.84-4.22-3.4-1.94,2.41,4,3.22-.68.85-4-3.22Z" transform="translate(-41.67 -41.68)"/>
    <path class="cls-1" d="M146.24,69.23a2,2,0,0,0,.23-3,3.23,3.23,0,0,0-1.28-1.08,1.35,1.35,0,0,0-1.41.21c-2,1.49,3.18,5.38,0,7.7a2.39,2.39,0,0,1-1.7.49,4.15,4.15,0,0,1-2.91-1.88,4.87,4.87,0,0,1-1-2.84,2.87,2.87,0,0,1,1.34-2.39l.76,1.05a1.89,1.89,0,0,0-.91,1.62,3.51,3.51,0,0,0,.74,1.92,3.83,3.83,0,0,0,1.39,1.21,1.42,1.42,0,0,0,1.54-.2c2.39-1.74-2.93-5.56,0-7.67a2.4,2.4,0,0,1,2.32-.39,4.36,4.36,0,0,1,2.09,1.61c1.24,1.7,1.28,3.4-.34,4.66Z" transform="translate(-41.67 -41.68)"/>
    <path class="cls-1" d="M145.32,82.26l2.33-2.35L146,76.32l-3.31.26-.57-1.23,10.43-.65.6,1.3-7.19,7.58Zm6.53-6.49-4.78.45,1.38,2.94,3.41-3.36Z" transform="translate(-41.67 -41.68)"/>
    <g>
      <path class="cls-1" d="M157.57,90.42,158,92.2l-9.5,2.07-.26-1.19,7.9-1.72v0l-8.53-1.16-.27-1.25,7.27-4.6v0L146.66,86l-.26-1.2,9.5-2.07.39,1.79-7.49,4.72Z" transform="translate(-41.67 -41.68)"/>
      <path class="cls-1" d="M158.28,101a2.88,2.88,0,1,1-5.75-.07l0-2.86-4-.05,0-1.29,9.72.12Zm-4.66-.49c0,1.41.56,2.13,1.76,2.15s1.79-.69,1.81-2.11l0-2.42-3.57,0Z" transform="translate(-41.67 -41.68)"/>
      <path class="cls-1" d="M149.18,107.22l-1,5.06-1.07-.21,1.21-6.33,9.55,1.84-.24,1.27Z" transform="translate(-41.67 -41.68)"/>
      <path class="cls-1" d="M147.33,115.1l-1.81,5.15-1-.36,2.25-6.37,9.17,3.23-2.23,6.33-1-.36,1.8-5.11-2.92-1-1.7,4.85-1-.37,1.71-4.84Z" transform="translate(-41.67 -41.68)"/>
    </g>
    <path class="cls-1" d="M146.65,130.14a2,2,0,0,0,2.83-1,3.27,3.27,0,0,0,.48-1.6,1.34,1.34,0,0,0-.75-1.22c-2.17-1.28-3.68,5.05-7.07,3.05A2.39,2.39,0,0,1,141,128a4.07,4.07,0,0,1,.58-3.41,4.84,4.84,0,0,1,2.18-2.09,2.88,2.88,0,0,1,2.73.28l-.66,1.11a2,2,0,0,0-1.85-.19,3.49,3.49,0,0,0-1.47,1.44,3.77,3.77,0,0,0-.56,1.76,1.43,1.43,0,0,0,.79,1.34c2.55,1.5,4-4.9,7-3.08a2.44,2.44,0,0,1,1.28,2,4.32,4.32,0,0,1-.66,2.55c-1.07,1.82-2.61,2.52-4.41,1.53Z" transform="translate(-41.67 -41.68)"/>
    <path class="cls-1" d="M141.77,132.93l-7,7.21-.78-.76,7-7.21Z" transform="translate(-41.67 -41.68)"/>
    <path class="cls-1" d="M129,147.37a2,2,0,0,0,3,.37,3.13,3.13,0,0,0,1.14-1.22,1.36,1.36,0,0,0-.14-1.43c-1.38-2.1-5.53,2.92-7.69-.36a2.37,2.37,0,0,1-.4-1.73,4.11,4.11,0,0,1,2-2.81,4.94,4.94,0,0,1,2.88-.92,2.9,2.9,0,0,1,2.33,1.45l-1.08.72a1.92,1.92,0,0,0-1.58-1,3.49,3.49,0,0,0-2,.65,3.75,3.75,0,0,0-1.28,1.33,1.4,1.4,0,0,0,.13,1.55c1.62,2.47,5.7-2.66,7.66.32a2.44,2.44,0,0,1,.28,2.34,4.32,4.32,0,0,1-1.71,2c-1.76,1.16-3.45,1.11-4.64-.57Z" transform="translate(-41.67 -41.68)"/>
    <path class="cls-1" d="M119.7,155l-.44-1,3-1.3-3.46-7.91,1.17-.52,3.46,7.91,3-1.29.44,1Z" transform="translate(-41.67 -41.68)"/>
    <g>
      <path class="cls-1" d="M117.06,155.75l-1.24.37-2.77-9.32,1.24-.37Z" transform="translate(-41.67 -41.68)"/>
      <path class="cls-1" d="M109.56,148.75l-5.08.84-.18-1.07,6.36-1.06,1.59,9.6-1.28.21Z" transform="translate(-41.67 -41.68)"/>
      <path class="cls-1" d="M101.48,149.67l-5.14-.06v-1.09l6.44.08-.12,9.72h-1.3Z" transform="translate(-41.67 -41.68)"/>
      <path class="cls-1" d="M89.27,148.5l-5-1.22.26-1.06,6.25,1.53-2.3,9.44-1.26-.3Z" transform="translate(-41.67 -41.68)"/>
    </g>
    <path class="cls-1" d="M79.63,154.62l-1.21-.46,3.45-9.09,1.21.46Z" transform="translate(-41.67 -41.68)"/>
    <path class="cls-1" d="M69.75,148.62l4.45,2.49,1.5-2.7-4.14-2.32.53-1,4.15,2.32,2.17-3.89,1.13.63-4.75,8.49-5.57-3.11Z" transform="translate(-41.67 -41.68)"/>
    <path class="cls-1" d="M70.62,140.09l-4.25-3.42.68-.85,5.26,4.24-6.1,7.57L61,143.42l.68-.85,4.22,3.4,1.94-2.41-4-3.22.68-.85,4,3.22Z" transform="translate(-41.67 -41.68)"/>
    <path class="cls-1" d="M53.83,130.88a2,2,0,0,0-.22,3,3.15,3.15,0,0,0,1.28,1.08,1.32,1.32,0,0,0,1.41-.21c2-1.48-3.18-5.38,0-7.7a2.43,2.43,0,0,1,1.7-.48,4.07,4.07,0,0,1,2.9,1.88A4.89,4.89,0,0,1,62,131.25a2.9,2.9,0,0,1-1.34,2.4l-.76-1.05a1.92,1.92,0,0,0,.91-1.62,3.43,3.43,0,0,0-.75-1.92,3.64,3.64,0,0,0-1.38-1.21,1.42,1.42,0,0,0-1.55.2c-2.38,1.74,2.93,5.56,0,7.66a2.44,2.44,0,0,1-2.32.4,4.31,4.31,0,0,1-2.09-1.61c-1.24-1.71-1.28-3.4.34-4.67Z" transform="translate(-41.67 -41.68)"/>
    <path class="cls-1" d="M54.73,117.86l-2.33,2.35,1.68,3.59,3.3-.27.58,1.24-10.43.65-.6-1.3,7.19-7.58Zm-6.53,6.49L53,123.9,51.61,121l-3.42,3.36Z" transform="translate(-41.67 -41.68)"/>
    <g>
      <path class="cls-1" d="M42.45,109.71l-.38-1.79,9.5-2.06.26,1.19-7.91,1.72v0L52.46,110l.27,1.25-7.27,4.61v0l7.91-1.72.26,1.2-9.5,2.06-.39-1.78,7.48-4.72Z" transform="translate(-41.67 -41.68)"/>
      <path class="cls-1" d="M41.72,99.16a2.66,2.66,0,0,1,2.91-3,2.65,2.65,0,0,1,2.84,3l0,2.86,4,0,0,1.3-9.72-.13Zm4.65.49c0-1.41-.56-2.13-1.75-2.14s-1.8.68-1.81,2.1l0,2.42,3.56,0Z" transform="translate(-41.67 -41.68)"/>
      <path class="cls-1" d="M50.83,92.94l.85-5.07,1.07.18-1,6.35-9.59-1.59.21-1.28Z" transform="translate(-41.67 -41.68)"/>
      <path class="cls-1" d="M52.62,85l1.82-5.15,1,.36L53.22,86.6l-9.17-3.23L46.28,77l1,.36-1.8,5.12,2.91,1,1.71-4.84,1,.36L49.45,83.9Z" transform="translate(-41.67 -41.68)"/>
    </g>
    <path class="cls-1" d="M53.28,70a2,2,0,0,0-2.82,1A3.15,3.15,0,0,0,50,72.54a1.36,1.36,0,0,0,.75,1.22c2.17,1.28,3.69-5.05,7.07-3.05a2.4,2.4,0,0,1,1.12,1.38,4.09,4.09,0,0,1-.57,3.4,4.93,4.93,0,0,1-2.19,2.1,2.88,2.88,0,0,1-2.73-.29l.66-1.11a1.92,1.92,0,0,0,1.85.19,3.43,3.43,0,0,0,1.47-1.44A3.74,3.74,0,0,0,58,73.18a1.41,1.41,0,0,0-.79-1.33c-2.54-1.51-4,4.89-7,3.07a2.43,2.43,0,0,1-1.29-2,4.37,4.37,0,0,1,.66-2.56c1.07-1.81,2.61-2.52,4.42-1.53Z" transform="translate(-41.67 -41.68)"/>
    <path class="cls-1" d="M58.16,67.32,65,60l.8.74L59,68.07Z" transform="translate(-41.67 -41.68)"/>
  </g>
</svg>
